# xmcd CD database file
#
# Track frame offsets:
#	150
#	15859
#	28470
#	43964
#	62249
#	78715
#	98765
#	115579
#	133137
#	158452
#	174502
#
# Disc length: 2542 seconds
#
# Revision: 2
# Processed by: cddbd v1.5.2PL0 Copyright (c) Steve Scherf et al.
# Submitted via: CDex 1.79
#
DISCID=8a09ec0b
DTITLE=Thieving Birds - Gold Coast
DYEAR=2013
DGENRE=Country Rock
TTITLE0=In The Summer
TTITLE1=Because My Baby Smiled
TTITLE2=Black Canyon Boom
TTITLE3=Brother Ryan
TTITLE4=Reasons
TTITLE5=In Your Arms
TTITLE6=You've Gotta Believe Me
TTITLE7=As Good As It Gets
TTITLE8=Graveyard Love
TTITLE9=December's Favorite Daughter
TTITLE10=When I Arrive
EXTD=YEAR: 2013
EXTT0=
EXTT1=
EXTT2=
EXTT3=
EXTT4=
EXTT5=
EXTT6=
EXTT7=
EXTT8=
EXTT9=
EXTT10=
PLAYORDER=
